<svg version="1.1" id="Layer_1" xmlns="http://www.w3.org/2000/svg" xmlns:xlink="http://www.w3.org/1999/xlink" x="0px" y="0px"
	 width="100%" viewBox="0 0 1024 1024" enable-background="new 0 0 1024 1024" xml:space="preserve">
<path fill="#000000" opacity="1.000000" stroke="none" 
	d="
M450.257446,345.273376 
	C451.053741,344.172058 451.586853,343.321838 452.206543,342.540314 
	C457.244965,336.185638 461.744110,336.103302 466.743286,342.419861 
	C475.628906,353.647003 484.429443,364.941406 493.272125,376.202545 
	C510.239746,397.810822 527.201233,419.423889 544.187439,441.017548 
	C550.988403,449.663177 550.981567,449.930389 541.213257,455.647522 
	C534.619568,459.506592 528.197327,463.538147 519.993591,463.476227 
	C513.557373,463.427612 508.287476,461.339081 503.798859,456.982208 
	C497.943756,451.298950 492.208862,445.491913 486.358093,439.804169 
	C482.215515,435.777039 480.915588,435.916138 477.078613,440.256317 
	C458.661743,461.088776 440.132263,481.822662 421.839966,502.763794 
	C412.606964,513.333862 401.475800,518.736328 387.243469,518.376282 
	C370.931732,517.963684 354.601410,518.306396 338.279297,518.263672 
	C335.695099,518.256897 332.588104,518.950134 331.216675,515.883972 
	C330.053528,513.283447 332.430328,511.583984 333.731354,509.786407 
	C369.842682,459.892639 405.097351,409.392792 440.494415,358.993652 
	C443.651550,354.498505 446.853363,350.034668 450.257446,345.273376 
z"/>
<path fill="#000000" opacity="1.000000" stroke="none" 
	d="
M474.079041,522.267883 
	C462.267670,521.788635 451.176544,519.756287 440.200806,517.033447 
	C438.050934,516.500122 435.818146,515.593933 436.267700,512.771057 
	C436.682892,510.164307 438.695312,509.528351 441.134766,509.550781 
	C480.908295,509.915741 513.661499,494.329071 541.082642,466.074493 
	C553.484741,453.295502 566.212097,440.762177 581.726562,431.580780 
	C611.336975,414.057495 642.862854,410.556793 675.990906,418.629486 
	C677.753113,419.058899 679.380798,419.631989 678.999756,421.791840 
	C678.605225,424.027985 676.945740,425.139038 674.718445,425.265411 
	C669.416687,425.566071 664.121399,425.595612 658.802063,426.041473 
	C639.139832,427.689606 622.448853,436.008087 607.097290,447.705994 
	C591.797791,459.364258 579.207031,473.908325 565.286072,487.035339 
	C543.394653,507.678345 517.484741,519.101257 487.481537,521.430176 
	C483.174652,521.764404 478.898346,522.439880 474.079041,522.267883 
z"/>
<path fill="#000000" opacity="1.000000" stroke="none" 
	d="
M765.943787,630.059143 
	C769.927490,616.442383 773.888000,603.227295 777.566406,589.934204 
	C778.597107,586.209656 780.079956,584.512756 784.326233,584.558899 
	C798.262085,584.710266 798.284424,584.514160 802.178650,597.856384 
	C806.086548,611.245056 809.948303,624.647156 814.162048,639.188416 
	C815.191040,635.927002 815.965881,633.580139 816.672668,631.212952 
	C820.858276,617.194336 825.100525,603.191895 829.148499,589.133545 
	C830.076904,585.909363 831.567627,584.428894 835.082214,584.608276 
	C840.197144,584.869446 845.335266,584.675354 850.663025,584.675354 
	C851.027771,589.189697 849.177551,592.641602 848.101318,596.182251 
	C841.236511,618.766846 834.145508,641.282715 827.275696,663.865723 
	C826.205750,667.382874 824.854065,669.212280 820.715271,668.585510 
	C816.966370,668.017761 813.052124,668.164734 809.245911,668.455627 
	C805.223755,668.762939 803.410645,667.359985 802.336731,663.319702 
	C798.665771,649.508179 794.550354,635.814392 790.566345,622.086792 
	C790.059021,620.338623 789.325195,618.656189 788.242310,615.706848 
	C786.083130,622.985291 784.195251,629.189209 782.405029,635.421204 
	C779.653503,645.000305 776.886719,654.576599 774.302612,664.201416 
	C773.454773,667.359070 772.233398,669.389221 768.531738,668.490906 
	C767.742432,668.299377 766.870239,668.476379 766.040527,668.420044 
	C761.272034,668.096313 755.359558,670.398132 752.040222,667.401367 
	C749.035950,664.689209 748.622925,659.020569 747.254028,654.597778 
	C740.667786,633.317200 734.138245,612.018921 727.611145,590.720093 
	C727.084534,589.001709 726.137817,587.325500 726.940491,584.776978 
	C732.842224,584.776978 738.957642,584.656921 745.064453,584.833435 
	C747.671448,584.908752 747.734070,587.486511 748.284485,589.294861 
	C752.639709,603.602966 756.921387,617.933472 761.249268,632.249939 
	C761.766418,633.960693 762.424683,635.628784 763.429077,638.488281 
	C764.447815,635.046265 765.130798,632.738770 765.943787,630.059143 
z"/>
<path fill="#000000" opacity="1.000000" stroke="none" 
	d="
M201.340607,649.000610 
	C201.335190,654.495056 201.238159,659.492126 201.359619,664.483887 
	C201.428604,667.319519 200.553345,668.919312 197.459518,668.887451 
	C192.465790,668.835938 187.470490,668.868286 182.476562,668.925781 
	C178.339325,668.973328 178.737137,666.028625 178.737869,663.362244 
	C178.744843,637.888550 178.762421,612.414917 178.781082,586.941223 
	C178.787659,577.950562 178.815201,568.959839 178.811737,559.969177 
	C178.810837,557.616455 179.072891,555.576538 182.197418,555.666016 
	C197.644745,556.108215 213.209961,554.075989 228.524521,556.816162 
	C241.966766,559.221375 253.498413,565.414001 257.442780,579.621948 
	C264.158478,603.812805 254.225937,624.946472 225.816223,628.468201 
	C219.825470,629.210876 213.865036,629.099304 207.883484,629.194153 
	C201.362518,629.297546 201.358505,629.276428 201.344971,636.013672 
	C201.336609,640.176086 201.341507,644.338501 201.340607,649.000610 
M224.690308,608.431213 
	C233.821365,605.212646 237.900803,598.744263 236.507202,589.694214 
	C235.137436,580.798828 229.119659,575.654541 219.524857,575.325928 
	C214.866440,575.166321 210.199036,575.277222 205.539627,575.136047 
	C202.669785,575.049194 201.249069,576.016357 201.291473,579.139526 
	C201.411255,587.964417 201.415314,596.792908 201.306168,605.617981 
	C201.268265,608.683472 202.549713,609.723145 205.489838,609.679382 
	C211.641052,609.587830 217.806427,609.897583 224.690308,608.431213 
z"/>
<path fill="#000000" opacity="1.000000" stroke="none" 
	d="
M483.225830,656.748291 
	C475.866150,647.945435 468.734772,639.416077 461.579407,630.858032 
	C459.718292,632.341187 460.320251,633.956238 460.310730,635.344055 
	C460.246643,644.673523 460.115631,654.007324 460.339813,663.331726 
	C460.435852,667.326355 459.318695,669.220947 455.046509,668.947937 
	C451.231171,668.704163 447.380096,668.792175 443.556213,668.973999 
	C439.908173,669.147522 438.558350,667.698059 438.613556,664.002686 
	C438.780304,652.842651 438.670197,641.678528 438.669739,630.515991 
	C438.668793,607.024658 438.657227,583.533325 438.690247,560.041992 
	C438.692993,558.088196 438.273590,556.055603 439.566833,553.587158 
	C445.404938,553.587158 451.520752,553.531372 457.634888,553.608582 
	C461.164093,553.653076 460.241394,556.475403 460.248871,558.422485 
	C460.312317,574.916138 460.285583,591.410095 460.285828,607.903992 
	C460.285858,609.714905 460.285828,611.525818 460.285828,614.150635 
	C464.699219,611.286133 467.121857,607.515198 470.100800,604.382202 
	C475.263855,598.952209 480.220001,593.321411 485.150726,587.676758 
	C487.055145,585.496643 489.191467,584.549500 492.117157,584.614502 
	C499.211121,584.772095 506.310913,584.665649 513.259460,584.665649 
	C513.833679,586.975159 512.527283,587.713501 511.663757,588.632324 
	C502.537598,598.342896 493.513397,608.154358 484.181976,617.664124 
	C481.165527,620.738159 481.225952,622.788086 483.966553,625.973877 
	C494.828125,638.599792 505.454193,651.428650 516.124573,664.218201 
	C517.130310,665.423706 518.732910,666.351990 518.582336,668.851685 
	C511.122101,668.851685 503.682770,668.850952 496.243439,668.852112 
	C493.881470,668.852478 492.161224,667.701233 490.728821,665.914001 
	C488.333923,662.925842 485.882019,659.983459 483.225830,656.748291 
z"/>
<path fill="#000000" opacity="1.000000" stroke="none" 
	d="
M391.142792,668.494751 
	C383.109894,671.219421 375.433167,671.385254 367.821503,668.550842 
	C354.027954,663.414429 348.409515,653.993713 350.109467,640.369873 
	C351.808960,626.750061 362.312378,618.051331 376.309967,617.690491 
	C384.129913,617.488953 391.959259,617.678284 399.783783,617.618530 
	C404.846558,617.579895 405.602081,616.310791 403.614380,611.501221 
	C400.083801,602.958374 389.904694,598.949097 378.932495,601.790527 
	C373.188721,603.277954 368.198242,606.191345 363.566132,609.828430 
	C362.192566,610.906921 361.140961,612.604065 358.409851,612.625549 
	C357.844849,606.876648 357.828461,601.136414 358.402649,595.404724 
	C358.503113,594.401917 359.409515,593.256531 360.264374,592.585693 
	C377.196350,579.299561 399.862549,578.032471 416.229736,591.983643 
	C422.266327,597.129150 425.142792,604.094849 425.260101,611.841797 
	C425.522156,629.152588 425.232117,646.471375 425.432251,663.783752 
	C425.479248,667.847656 423.919922,669.095825 420.191559,668.932556 
	C416.702362,668.779907 413.181396,668.682617 409.709137,668.974365 
	C404.667847,669.398010 403.463806,666.476501 403.617523,661.909302 
	C398.978516,663.585938 395.822296,667.102295 391.142792,668.494751 
M372.765076,637.463989 
	C369.164032,645.287903 371.762695,650.821655 379.932068,652.823669 
	C385.940887,654.296204 391.386475,652.463806 396.681000,649.963867 
	C403.951324,646.530884 405.085449,644.314819 404.750641,636.481750 
	C404.621216,633.453491 403.395294,632.355225 400.518494,632.398804 
	C395.380371,632.476685 390.223145,632.157654 385.106018,632.493286 
	C380.821533,632.774414 376.543152,633.647888 372.765076,637.463989 
z"/>
<path fill="#000000" opacity="1.000000" stroke="none" 
	d="
M342.328613,620.251343 
	C342.345978,623.885864 342.161896,627.065186 342.414093,630.209473 
	C342.731628,634.168213 341.121918,635.422668 337.235260,635.382019 
	C321.917542,635.221558 306.597076,635.318237 291.277649,635.319397 
	C289.313141,635.319580 287.348633,635.319458 285.394257,635.319458 
	C285.311859,643.716797 291.613251,650.904846 300.195618,652.602905 
	C311.898315,654.918396 322.146790,651.230286 331.694458,644.794434 
	C332.912201,643.973572 334.090149,643.093750 336.041107,641.703552 
	C336.538513,648.273499 336.487122,654.145935 335.979095,660.012695 
	C335.837280,661.650635 334.297180,662.438232 332.989532,663.152039 
	C316.013031,672.418701 298.876251,673.809326 281.795349,663.619629 
	C270.362000,656.799072 264.858154,646.250732 263.613220,633.174316 
	C262.358429,619.994690 263.981781,607.549927 272.689606,596.961975 
	C283.115295,584.285339 296.719910,580.051636 312.472534,583.497314 
	C328.500885,587.003296 337.220612,598.101929 341.247253,613.407227 
	C341.793152,615.482178 341.972015,617.653687 342.328613,620.251343 
M320.292206,617.766907 
	C323.501892,616.635376 321.589691,614.395508 321.084686,612.860413 
	C318.604309,605.320862 311.985199,600.511963 304.282593,600.346008 
	C295.109283,600.148315 288.844635,604.134216 285.537842,612.272522 
	C283.616699,617.000732 284.096832,617.823364 289.159424,617.846191 
	C299.280701,617.891907 309.402466,617.839722 320.292206,617.766907 
z"/>
<path fill="#000000" opacity="1.000000" stroke="none" 
	d="
M562.018066,575.294067 
	C548.984802,575.299255 549.010620,575.299500 548.892334,588.048035 
	C548.863098,591.205627 548.748718,594.375854 548.419861,597.513733 
	C547.997559,601.543823 549.383545,603.102173 553.656128,603.010132 
	C565.305176,602.759033 576.965759,603.065979 588.616272,602.851440 
	C592.869995,602.773071 594.445129,604.027161 594.442078,608.504395 
	C594.432007,623.335571 594.594910,623.333191 579.966736,623.324463 
	C571.309021,623.319275 562.648987,623.442139 553.994812,623.266418 
	C550.402283,623.193542 548.824097,624.436035 548.812256,628.109070 
	C548.772766,640.406921 548.586365,652.704285 548.440369,665.001648 
	C548.428711,665.982361 548.295593,666.961548 548.193726,668.263550 
	C542.116882,668.263550 536.183594,668.483765 530.278076,668.174988 
	C527.107056,668.009155 527.897827,665.021362 527.889771,663.027954 
	C527.820984,646.045837 527.841919,629.063354 527.834961,612.080994 
	C527.828064,595.265198 527.935974,578.447998 527.733276,561.634583 
	C527.680603,557.263306 528.701111,555.486877 533.526550,555.547363 
	C554.002136,555.804016 574.483582,555.754517 594.960876,555.581909 
	C599.050842,555.547485 600.411438,556.750366 600.420776,560.923157 
	C600.453125,575.311523 600.598450,575.306580 585.990417,575.290222 
	C578.165100,575.281494 570.339844,575.291931 562.018066,575.294067 
z"/>
<path fill="#000000" opacity="1.000000" stroke="none" 
	d="
M703.372681,587.412354 
	C722.567261,598.282104 727.381653,615.297668 724.975037,634.331970 
	C722.572510,653.333557 710.813904,666.200073 692.586243,669.650574 
	C663.892090,675.082397 642.016479,656.796265 640.581177,630.102234 
	C639.904297,617.513794 641.769348,605.770569 650.419800,596.126404 
	C663.458984,581.589294 683.486694,578.359497 703.372681,587.412354 
M660.492188,630.852112 
	C660.838684,632.306396 661.128540,633.777039 661.540894,635.212402 
	C664.228088,644.567261 672.313843,651.460510 681.963196,651.480469 
	C690.797424,651.498718 698.228516,648.381653 702.835083,638.087952 
	C705.563538,631.990967 705.932800,625.630920 704.576660,619.107117 
	C702.622253,609.705261 695.281982,602.723511 685.850464,601.431274 
	C676.642517,600.169739 667.910767,604.683899 663.445862,613.051575 
	C660.610962,618.364258 659.968567,624.085999 660.492188,630.852112 
z"/>
<path fill="#000000" opacity="1.000000" stroke="none" 
	d="
M631.151855,582.000000 
	C631.147339,609.149841 631.042908,635.800415 631.236023,662.448853 
	C631.270752,667.238953 629.962585,669.069336 625.022644,668.509705 
	C621.416931,668.101257 617.711365,668.563171 614.050720,668.654968 
	C611.685608,668.714233 610.396667,667.984802 610.408264,665.218506 
	C610.562439,628.420654 610.628601,591.622314 610.723206,554.824158 
	C610.723633,554.665161 610.817139,554.506409 611.115051,553.559937 
	C616.913757,553.559937 622.998230,553.383301 629.063965,553.642883 
	C631.656372,553.753845 631.112427,556.290894 631.125366,558.014893 
	C631.184265,565.842896 631.152771,573.671570 631.151855,582.000000 
z"/>
</svg>